<?xml version="1.0" standalone="no"?><!DOCTYPE svg PUBLIC "-//W3C//DTD SVG 1.1//EN" "http://www.w3.org/Graphics/SVG/1.1/DTD/svg11.dtd"><svg t="1556506163912" class="icon" style="" viewBox="0 0 1024 1024" version="1.1" xmlns="http://www.w3.org/2000/svg" p-id="2667" xmlns:xlink="http://www.w3.org/1999/xlink" width="200" height="200"><defs><style type="text/css"></style></defs><path d="M562.28 513.001l197.101-197.082c13.61-13.609 13.587-35.657-0.022-49.268-13.609-13.609-35.657-13.621-49.268-0.011L513.005 463.728 315.908 266.641c-13.61-13.61-35.658-13.61-49.268 0-13.609 13.609-13.609 35.669 0 49.278l197.083 197.088-197.082 197.085c-13.609 13.609-13.609 35.668 0 49.279 13.609 13.609 35.657 13.586 49.245 0l197.109-197.09 197.073 197.078c13.633 13.621 35.681 13.609 49.29 0s13.633-35.658 0.022-49.268l-197.1-197.09z" p-id="2668"></path></svg>