<?xml version="1.0" standalone="no"?><!DOCTYPE svg PUBLIC "-//W3C//DTD SVG 1.1//EN" "http://www.w3.org/Graphics/SVG/1.1/DTD/svg11.dtd"><svg t="1556506742186" class="icon" style="" viewBox="0 0 1024 1024" version="1.1" xmlns="http://www.w3.org/2000/svg" p-id="9216" xmlns:xlink="http://www.w3.org/1999/xlink" width="200" height="200"><defs><style type="text/css"></style></defs><path d="M818.561559 944.051133 695.117063 944.051133c-68.170612 0-123.44245-55.273884-123.44245-123.443473L571.674613 697.164187c0-68.171636 55.271838-123.443473 123.44245-123.443473l123.444497 0c68.169589 0 123.44245 55.271838 123.44245 123.443473l0 123.443473C942.004009 888.777249 886.731148 944.051133 818.561559 944.051133zM818.561559 450.278263 695.117063 450.278263c-68.170612 0-123.44245-55.272861-123.44245-123.443473L571.674613 203.39234c0-68.170612 55.271838-123.443473 123.44245-123.443473l123.444497 0c68.169589 0 123.44245 55.272861 123.44245 123.443473l0 123.44245C942.004009 395.005402 886.731148 450.278263 818.561559 450.278263zM324.788689 944.051133 201.345216 944.051133c-68.171636 0-123.443473-55.273884-123.443473-123.443473L77.901743 697.164187c0-68.171636 55.271838-123.443473 123.443473-123.443473l123.443473 0c68.170612 0 123.443473 55.271838 123.443473 123.443473l0 123.443473C448.231139 888.777249 392.959302 944.051133 324.788689 944.051133zM324.788689 450.278263 201.345216 450.278263c-68.171636 0-123.443473-55.272861-123.443473-123.443473L77.901743 203.39234c0-68.170612 55.271838-123.443473 123.443473-123.443473l123.443473 0c68.170612 0 123.443473 55.272861 123.443473 123.443473l0 123.44245C448.231139 395.005402 392.959302 450.278263 324.788689 450.278263z" p-id="9217"></path></svg>