<?xml version="1.0" standalone="no"?><!DOCTYPE svg PUBLIC "-//W3C//DTD SVG 1.1//EN" "http://www.w3.org/Graphics/SVG/1.1/DTD/svg11.dtd"><svg t="1556507111943" class="icon" style="" viewBox="0 0 1024 1024" version="1.1" xmlns="http://www.w3.org/2000/svg" p-id="9332" xmlns:xlink="http://www.w3.org/1999/xlink" width="200" height="200"><defs><style type="text/css"></style></defs><path d="M181.613826 196.397019c-47.393403 0-85.793992 38.400588-85.793992 85.795015 0 47.3801 38.400588 85.793992 85.793992 85.793992 47.366797 0 85.793992-38.414915 85.793992-85.793992C267.407817 234.797607 228.980623 196.397019 181.613826 196.397019zM181.613826 425.182702c-47.393403 0-85.793992 38.414915-85.793992 85.793992s38.400588 85.793992 85.793992 85.793992c47.366797 0 85.793992-38.413891 85.793992-85.793992S228.980623 425.182702 181.613826 425.182702zM181.613826 653.967362c-47.393403 0-85.793992 38.401612-85.793992 85.795015 0 47.3801 38.400588 85.795015 85.793992 85.795015 47.366797 0 85.793992-38.414915 85.793992-85.795015C267.407817 692.368974 228.980623 653.967362 181.613826 653.967362zM410.399509 339.387687l457.571367 0c31.586392 0 57.195653-25.610284 57.195653-57.196677 0-31.586392-25.608238-57.196677-57.195653-57.196677l-457.571367 0c-31.586392 0-57.196677 25.610284-57.196677 57.196677C353.202832 313.777403 378.813117 339.387687 410.399509 339.387687zM867.970876 453.78104l-457.571367 0c-31.586392 0-57.196677 25.609261-57.196677 57.196677 0 31.586392 25.610284 57.196677 57.196677 57.196677l457.571367 0c31.586392 0 57.195653-25.609261 57.195653-57.196677C925.166529 479.389278 899.557268 453.78104 867.970876 453.78104zM867.970876 682.5657l-457.571367 0c-31.586392 0-57.196677 25.610284-57.196677 57.196677 0 31.586392 25.610284 57.196677 57.196677 57.196677l457.571367 0c31.586392 0 57.195653-25.609261 57.195653-57.196677C925.166529 708.175985 899.557268 682.5657 867.970876 682.5657z" p-id="9333"></path></svg>